<svg width="83" height="55" viewBox="0 0 83 55" fill="none" xmlns="http://www.w3.org/2000/svg">
<g clip-path="url(#clip0)">
<mask id="path-1-inside-1" fill="white">
<path d="M38.591 25.4814L38.5932 25.4792H38.591V25.4814Z"/>
</mask>
<path d="M38.591 25.4814H37.591C37.591 25.8853 37.834 26.2496 38.2069 26.4047C38.5799 26.5598 39.0095 26.4754 39.296 26.1906L38.591 25.4814ZM38.5932 25.4792L39.2982 26.1884C39.5855 25.9029 39.6721 25.4723 39.5177 25.0979C39.3633 24.7235 38.9982 24.4792 38.5932 24.4792V25.4792ZM38.591 25.4792V24.4792C38.0387 24.4792 37.591 24.9269 37.591 25.4792H38.591ZM39.296 26.1906L39.2982 26.1884L37.8883 24.77L37.886 24.7722L39.296 26.1906ZM38.5932 24.4792H38.591V26.4792H38.5932V24.4792ZM37.591 25.4792V25.4814H39.591V25.4792H37.591Z" fill="#A1A1A1" mask="url(#path-1-inside-1)"/>
<mask id="path-3-inside-2" fill="white">
<path d="M38.5576 24.6349C38.2273 19.6389 35.9465 15.5761 32.8066 12.5142C35.7877 15.5359 38.0203 19.749 38.591 25.4813C38.5869 25.1914 38.5764 24.9121 38.5576 24.6349Z"/>
</mask>
<path d="M38.5576 24.6349C38.2273 19.6389 35.9465 15.5761 32.8066 12.5142C35.7877 15.5359 38.0203 19.749 38.591 25.4813C38.5869 25.1914 38.5764 24.9121 38.5576 24.6349Z" fill="#A1A1A1"/>
<path d="M38.5576 24.6349L37.5598 24.7009L37.5599 24.7026L38.5576 24.6349ZM32.8066 12.5142L33.5047 11.7983C33.112 11.4153 32.4841 11.4202 32.0974 11.8092C31.7107 12.1982 31.7095 12.8261 32.0947 13.2165L32.8066 12.5142ZM38.591 25.4813L37.596 25.5804C37.6491 26.1135 38.1129 26.5101 38.6478 26.4797C39.1828 26.4493 39.5987 26.0026 39.5909 25.4669L38.591 25.4813ZM39.5554 24.5689C39.2062 19.2874 36.7909 15.0028 33.5047 11.7983L32.1084 13.2302C35.1021 16.1495 37.2484 19.9904 37.5598 24.7009L39.5554 24.5689ZM32.0947 13.2165C34.9129 16.0731 37.0476 20.0723 37.596 25.5804L39.5861 25.3822C38.9931 19.4256 36.6624 14.9987 33.5185 11.8119L32.0947 13.2165ZM39.5909 25.4669C39.5866 25.1621 39.5755 24.8648 39.5553 24.5672L37.5599 24.7026C37.5773 24.9594 37.5872 25.2207 37.5912 25.4957L39.5909 25.4669Z" fill="#A1A1A1" mask="url(#path-3-inside-2)"/>
<mask id="path-5-inside-3" fill="white">
<path d="M38.5931 25.5638C38.5931 26.2558 38.4405 31.3279 35.2985 38.4441C37.251 34.2904 38.6517 29.8065 38.5931 25.5638Z"/>
</mask>
<path d="M38.5931 25.5638C38.5931 26.2558 38.4405 31.3279 35.2985 38.4441C37.251 34.2904 38.6517 29.8065 38.5931 25.5638Z" fill="#A1A1A1"/>
<path d="M38.5931 25.5638L39.593 25.55C39.5854 25.0005 39.1358 24.5601 38.5862 24.5639C38.0366 24.5676 37.5931 25.0142 37.5931 25.5638L38.5931 25.5638ZM35.2985 38.4441L34.3837 38.0402C34.1625 38.5412 34.3854 39.127 34.8838 39.3541C35.3821 39.5812 35.9705 39.3652 36.2035 38.8695L35.2985 38.4441ZM37.5931 25.5638C37.5931 26.1425 37.46 31.0729 34.3837 38.0402L36.2133 38.8481C39.4211 31.5829 39.5931 26.369 39.5931 25.5638H37.5931ZM36.2035 38.8695C38.1874 34.649 39.6545 30.0067 39.593 25.55L37.5932 25.5776C37.6488 29.6062 36.3146 33.9317 34.3935 38.0187L36.2035 38.8695Z" fill="#A1A1A1" mask="url(#path-5-inside-3)"/>
<mask id="path-7-inside-4" fill="white">
<path d="M10.3669 6.34387H10.5759H10.3669Z"/>
</mask>
<path d="M10.3669 6.34387H10.5759H10.3669Z" fill="#A1A1A1"/>
<path d="M10.3669 5.34387C9.8146 5.34387 9.36688 5.79159 9.36688 6.34387C9.36688 6.89616 9.8146 7.34387 10.3669 7.34387V5.34387ZM10.5759 7.34387C11.1282 7.34387 11.5759 6.89616 11.5759 6.34387C11.5759 5.79159 11.1282 5.34387 10.5759 5.34387V7.34387ZM10.3669 7.34387H10.5759V5.34387H10.3669V7.34387ZM10.5759 5.34387H10.3669V7.34387H10.5759V5.34387Z" fill="#A1A1A1" mask="url(#path-7-inside-4)"/>
<mask id="path-9-inside-5" fill="white">
<path d="M4.22703 5.61596C2.99762 4.67757 1.81764 3.67461 0.691956 2.61119C1.80853 3.68497 2.9891 4.68845 4.22703 5.61596V5.61596Z"/>
</mask>
<path d="M4.22703 5.61596C2.99762 4.67757 1.81764 3.67461 0.691956 2.61119C1.80853 3.68497 2.9891 4.68845 4.22703 5.61596V5.61596Z" fill="#A1A1A1"/>
<path d="M0.691956 2.61119L1.37867 1.88426C0.978463 1.5062 0.34794 1.52273 -0.031907 1.92125C-0.411754 2.31977 -0.39803 2.95036 -0.00120436 3.33197L0.691956 2.61119ZM4.83377 4.82106C3.63222 3.90394 2.47894 2.92367 1.37867 1.88426L0.00524086 3.33812C1.15635 4.42555 2.36302 5.45121 3.62029 6.41087L4.83377 4.82106ZM-0.00120436 3.33197C1.14485 4.43411 2.35666 5.46414 3.62741 6.41625L4.82664 4.81568C3.62155 3.91276 2.47221 2.93584 1.38512 1.89041L-0.00120436 3.33197Z" fill="#A1A1A1" mask="url(#path-9-inside-5)"/>
<mask id="path-11-inside-6" fill="white">
<path d="M27.6409 8.70749C23.0104 6.16824 17.8907 5.21391 14.3786 6.01377C14.1403 6.06879 13.902 6.11534 13.6678 6.15766C17.1507 5.52708 22.6675 6.0836 27.6409 8.70749Z"/>
</mask>
<path d="M27.6409 8.70749C23.0104 6.16824 17.8907 5.21391 14.3786 6.01377C14.1403 6.06879 13.902 6.11534 13.6678 6.15766C17.1507 5.52708 22.6675 6.0836 27.6409 8.70749Z" fill="#A1A1A1"/>
<path d="M27.6409 8.70749L27.1743 9.59194C27.66 9.84818 28.2614 9.66483 28.5216 9.18123C28.7817 8.69762 28.6032 8.09471 28.1217 7.83067L27.6409 8.70749ZM14.3786 6.01377L14.1566 5.03874L14.1537 5.0394L14.3786 6.01377ZM13.6678 6.15766L13.4897 5.17366C12.9463 5.27205 12.5855 5.79227 12.6838 6.33568C12.7821 6.87908 13.3023 7.23994 13.8457 7.14172L13.6678 6.15766ZM28.1217 7.83067C23.3535 5.21591 17.9804 4.16787 14.1566 5.03874L14.6007 6.98881C17.801 6.25995 22.6673 7.12057 27.1601 9.5843L28.1217 7.83067ZM14.1537 5.0394C13.9366 5.08951 13.7153 5.13288 13.49 5.17361L13.8457 7.14172C14.0887 7.09781 14.344 7.04807 14.6036 6.98815L14.1537 5.0394ZM13.846 7.14167C17.1021 6.55214 22.3926 7.06916 27.1743 9.59194L28.1075 7.82303C22.9425 5.09804 17.1992 4.50203 13.4897 5.17366L13.846 7.14167Z" fill="#A1A1A1" mask="url(#path-11-inside-6)"/>
<mask id="path-13-inside-7" fill="white">
<path d="M13.5884 6.16824C12.7148 6.31643 11.8296 6.38301 10.9439 6.36715C11.8297 6.38649 12.7152 6.31988 13.5884 6.16824V6.16824Z"/>
</mask>
<path d="M13.5884 6.16824C12.7148 6.31643 11.8296 6.38301 10.9439 6.36715C11.8297 6.38649 12.7152 6.31988 13.5884 6.16824V6.16824Z" fill="#A1A1A1"/>
<path d="M10.9439 6.36715L10.9618 5.36731C10.4104 5.35743 9.95506 5.79587 9.94411 6.34728C9.93315 6.89869 10.3707 7.35487 10.9221 7.36691L10.9439 6.36715ZM13.4212 5.18233C12.6087 5.32014 11.7854 5.38206 10.9618 5.36731L10.926 7.36699C11.8737 7.38396 12.8209 7.31271 13.7557 7.15416L13.4212 5.18233ZM10.9221 7.36691C11.8725 7.38766 12.8226 7.31619 13.7595 7.1535L13.4173 5.18299C12.6078 5.32357 11.7868 5.38531 10.9657 5.36739L10.9221 7.36691Z" fill="#A1A1A1" mask="url(#path-13-inside-7)"/>
<mask id="path-15-inside-8" fill="white">
<path d="M24.7643 15.3603C30.254 17.9313 33.7974 20.826 35.844 22.8574C32.6743 19.6446 28.9091 17.0968 24.7643 15.3603Z"/>
</mask>
<path d="M24.7643 15.3603C30.254 17.9313 33.7974 20.826 35.844 22.8574C32.6743 19.6446 28.9091 17.0968 24.7643 15.3603Z" fill="#A1A1A1"/>
<path d="M24.7643 15.3603L25.1507 14.438C24.6487 14.2277 24.0707 14.4574 23.8501 14.955C23.6295 15.4525 23.8473 16.0351 24.3402 16.2659L24.7643 15.3603ZM35.844 22.8574L35.1396 23.5672C35.5301 23.9548 36.1604 23.9541 36.5501 23.5656C36.9398 23.1771 36.9424 22.5468 36.5559 22.1551L35.844 22.8574ZM24.3402 16.2659C29.7163 18.7837 33.1666 21.6089 35.1396 23.5672L36.5485 22.1477C34.4282 20.0432 30.7917 17.0789 25.1884 14.4547L24.3402 16.2659ZM36.5559 22.1551C33.2937 18.8485 29.418 16.2258 25.1507 14.438L24.3779 16.2826C28.4001 17.9678 32.0549 20.4406 35.1322 23.5597L36.5559 22.1551Z" fill="#A1A1A1" mask="url(#path-15-inside-8)"/>
<mask id="path-17-inside-9" fill="white">
<path d="M33.5404 27.0324C33.5404 27.0324 32.9132 29.925 31.4394 34.8151C32.9738 30.3355 34.0086 26.9075 33.5404 27.0324Z"/>
</mask>
<path d="M33.5404 27.0324C33.5404 27.0324 32.9132 29.925 31.4394 34.8151C32.9738 30.3355 34.0086 26.9075 33.5404 27.0324Z" fill="#A1A1A1"/>
<path d="M33.5404 27.0324L33.2828 26.0661C32.9204 26.1627 32.6425 26.454 32.5631 26.8205L33.5404 27.0324ZM31.4394 34.8151L30.4819 34.5266C30.3247 35.0484 30.6142 35.6001 31.133 35.767C31.6518 35.934 32.2088 35.6548 32.3854 35.1392L31.4394 34.8151ZM33.5404 27.0324C32.5631 26.8205 32.5631 26.8204 32.5631 26.8204C32.5631 26.8204 32.5631 26.8203 32.5631 26.8203C32.5631 26.8203 32.5631 26.8204 32.5631 26.8205C32.563 26.8207 32.563 26.821 32.5628 26.8215C32.5626 26.8226 32.5622 26.8244 32.5617 26.8268C32.5606 26.8317 32.5589 26.8395 32.5566 26.8499C32.552 26.8709 32.5448 26.9029 32.5351 26.9458C32.5157 27.0316 32.4862 27.1608 32.446 27.3316C32.3655 27.6732 32.2426 28.1815 32.0737 28.8423C31.7359 30.1641 31.2144 32.0961 30.4819 34.5266L32.3969 35.1037C33.1382 32.644 33.6672 30.6846 34.0114 29.3375C34.1836 28.664 34.3095 28.1434 34.3927 27.7899C34.4344 27.6131 34.4653 27.4781 34.486 27.3866C34.4963 27.3408 34.5041 27.3059 34.5093 27.2821C34.512 27.2702 34.514 27.2611 34.5154 27.2548C34.5161 27.2516 34.5166 27.2492 34.517 27.2474C34.5172 27.2465 34.5173 27.2458 34.5174 27.2453C34.5175 27.245 34.5175 27.2448 34.5176 27.2446C34.5176 27.2446 34.5176 27.2445 34.5176 27.2444C34.5176 27.2443 34.5177 27.2442 33.5404 27.0324ZM32.3854 35.1392C33.1538 32.896 33.8039 30.8967 34.2039 29.4664C34.4016 28.7599 34.5498 28.1519 34.6147 27.7117C34.644 27.5135 34.6734 27.2467 34.6365 26.9995C34.6204 26.8918 34.5698 26.6157 34.3472 26.3735C34.22 26.2349 34.0437 26.1167 33.8247 26.0614C33.613 26.008 33.4232 26.0287 33.2828 26.0661L33.798 27.9986C33.6868 28.0282 33.5233 28.0481 33.3351 28.0006C33.1395 27.9512 32.9839 27.8457 32.8744 27.7265C32.6874 27.5229 32.661 27.3121 32.6584 27.2949C32.6486 27.2288 32.662 27.2443 32.6361 27.4199C32.5908 27.7273 32.4722 28.2329 32.2779 28.9277C31.894 30.3001 31.2594 32.2546 30.4934 34.4911L32.3854 35.1392Z" fill="#A1A1A1" mask="url(#path-17-inside-9)"/>
<path d="M0.538675 4.38147C0.758903 5.04739 1.05606 5.86531 1.4458 6.78979C2.50679 9.30646 4.25768 12.6217 7.01825 15.8098C12.0588 21.631 20.4323 26.9866 33.9854 26.3473C33.7326 26.4254 33.5259 26.4901 33.3888 26.5346C32.6109 26.5592 28.795 26.7656 23.1369 28.6746C22.1908 28.9939 21.5281 29.7101 21.0828 30.6379C20.6412 31.558 20.3977 32.7146 20.2889 33.9927C20.0714 36.5506 20.3844 39.7282 20.8873 42.8035C21.3915 45.8862 22.0922 48.8985 22.666 51.1378C22.7764 51.5687 22.8822 51.9712 22.981 52.3403C18.8711 45.8422 17.5848 40.3856 17.3479 36.4546C17.2152 34.2521 17.4114 32.5211 17.6307 31.3458C17.7403 30.7582 17.8559 30.3081 17.94 30.005C17.9678 29.9049 17.9898 29.8291 18.0088 29.7634C18.0203 29.7236 18.0308 29.6874 18.0408 29.6518C18.0516 29.6136 18.0643 29.5674 18.0726 29.5277L18.0727 29.5271C18.0757 29.5125 18.0853 29.4665 18.0862 29.4122L18.0862 29.4118C18.0866 29.3914 18.088 29.3116 18.0526 29.2192C18.033 29.1679 17.9917 29.0852 17.906 29.0134C17.8635 28.9777 17.8167 28.9503 17.7678 28.9311C9.57432 25.4335 5.89063 20.8753 4.0381 16.9032C3.1069 14.9065 2.6305 13.0411 2.28367 11.4927C2.22908 11.249 2.17715 11.0105 2.12686 10.7795C2.01925 10.2853 1.91916 9.82558 1.81659 9.42318C1.66714 8.83689 1.49669 8.30322 1.24881 7.90266C0.516271 6.71895 0.428216 5.41929 0.538675 4.38147Z" stroke="#A1A1A1" stroke-linejoin="round"/>
<path d="M34.1471 27.345C34.7216 27.1668 35.6086 26.8974 36.4544 26.6421C37.0453 26.4638 37.6128 26.2934 38.0334 26.1676C38.0444 26.1643 38.0552 26.1611 38.0659 26.1579C37.968 27.7918 37.4599 32.2867 34.8375 38.2387C32.8615 42.6374 30.3097 46.7468 27.2509 50.4562L27.2488 50.4587C26.7682 51.0494 26.2669 51.6438 25.7433 52.2416C28.07 46.5881 30.1283 40.8247 31.911 34.9711C32.6775 32.733 33.3226 30.748 33.7182 29.3339C33.915 28.6303 34.0558 28.0479 34.1158 27.6409C34.1302 27.5432 34.1422 27.4425 34.1471 27.345Z" stroke="#A1A1A1" stroke-linejoin="round"/>
<path d="M4.22702 5.61596L4.43243 5.34771L4.22702 5.61596ZM4.22702 5.61596L4.42756 5.34556C3.94266 5.1313 3.49204 4.90932 3.08 4.69019C3.06032 4.67973 3.04074 4.66927 3.02124 4.65882C3.4176 4.98487 3.81958 5.30396 4.22702 5.61596ZM24.9578 14.9028C21.6087 13.3507 18.1198 12.1287 14.5393 11.2536C11.2249 9.66483 8.05798 7.77893 5.07647 5.61871C6.58847 6.22371 8.38137 6.72223 10.3462 6.84502C10.3565 6.84566 10.3669 6.84599 10.3773 6.84599H10.5763L10.932 6.86039L10.932 6.86048L10.9413 6.86068C11.8449 6.88041 12.7483 6.81384 13.6394 6.66189H13.6762C13.7057 6.66189 13.7352 6.65928 13.7643 6.65407C17.1285 6.05205 22.5325 6.58296 27.4096 9.15606L27.4111 9.15685C29.269 10.129 30.9695 11.3828 32.4538 12.875C35.1651 15.6158 37.2508 19.3923 37.967 24.4613C37.4202 23.7665 36.8252 23.1114 36.1864 22.501C32.9738 19.246 29.1581 16.6639 24.9578 14.9028ZM4.52796 5.21664C4.1131 4.89891 3.70396 4.57373 3.30073 4.24126C5.06579 5.18171 7.5424 6.16883 10.3773 6.34599H10.5864L4.52796 5.21664Z" stroke="#A1A1A1" stroke-linejoin="round"/>
<path d="M23.4525 29.6222L23.4526 29.6221C28.1843 28.0239 31.5811 27.6413 32.9074 27.5556C32.8269 27.8956 32.7118 28.3693 32.5591 28.9667C32.2198 30.2951 31.6955 32.2346 30.9567 34.6742C29.0399 40.9692 26.8027 47.1593 24.2543 53.2197C24.0836 52.6095 23.8679 51.8159 23.6306 50.8895C23.061 48.6666 22.3678 45.6853 21.8701 42.6421C21.3712 39.5914 21.0743 36.5108 21.2812 34.0775C21.3848 32.86 21.612 31.8377 21.9802 31.0706C22.3447 30.3113 22.8307 29.8319 23.4525 29.6222Z" stroke="#A1A1A1" stroke-linejoin="round"/>
<path d="M14.1629 12.1782L14.3786 11.7271L14.2603 12.2129C17.7973 13.0741 21.2436 14.28 24.5512 15.8136C29.9856 18.3579 33.4821 21.2176 35.4896 23.2121L35.4895 23.2122L35.4962 23.2185C36.1039 23.8006 36.6697 24.4255 37.1894 25.0885C22.0087 26.8002 13.0071 21.2002 7.77319 15.1565C5.09814 12.0676 3.39732 8.84995 2.3655 6.4031C1.973 5.47232 1.67785 4.65436 1.46304 3.99921C2.25901 4.70649 3.0839 5.38009 3.93559 6.01822L3.93559 6.01823L3.93761 6.01973C7.1445 8.39731 10.5685 10.4595 14.1629 12.1782Z" stroke="#A1A1A1" stroke-linejoin="round"/>
<mask id="path-24-inside-10" fill="white">
<path d="M44.4091 25.3227L44.4069 25.3205H44.4091V25.3227Z"/>
</mask>
<path d="M44.4091 25.3227L43.7038 26.0316C43.9902 26.3166 44.4199 26.4012 44.793 26.2461C45.166 26.091 45.4091 25.7267 45.4091 25.3227H44.4091ZM44.4069 25.3205V24.3205C44.0019 24.3205 43.637 24.5647 43.4825 24.939C43.328 25.3133 43.4145 25.7438 43.7016 26.0294L44.4069 25.3205ZM44.4091 25.3205H45.4091C45.4091 24.7682 44.9614 24.3205 44.4091 24.3205V25.3205ZM45.1144 24.6138L45.1121 24.6116L43.7016 26.0294L43.7038 26.0316L45.1144 24.6138ZM44.4069 26.3205H44.4091V24.3205H44.4069V26.3205ZM43.4091 25.3205V25.3227H45.4091V25.3205H43.4091Z" fill="#A1A1A1" mask="url(#path-24-inside-10)"/>
<mask id="path-26-inside-11" fill="white">
<path d="M44.4403 24.4762C44.7706 19.4802 47.0597 15.4174 50.1955 12.3619C47.2144 15.3815 44.9817 19.5966 44.4089 25.3205C44.4131 25.0327 44.4215 24.7534 44.4403 24.4762Z"/>
</mask>
<path d="M44.4403 24.4762C44.7706 19.4802 47.0597 15.4174 50.1955 12.3619C47.2144 15.3815 44.9817 19.5966 44.4089 25.3205C44.4131 25.0327 44.4215 24.7534 44.4403 24.4762Z" fill="#A1A1A1"/>
<path d="M44.4403 24.4762L45.438 24.5439L45.4381 24.5422L44.4403 24.4762ZM50.1955 12.3619L50.9071 13.0644C51.2925 12.6741 51.2915 12.0462 50.9049 11.6571C50.5183 11.268 49.8905 11.2629 49.4976 11.6457L50.1955 12.3619ZM44.4089 25.3205L43.409 25.306C43.4013 25.8416 43.817 26.2883 44.3518 26.3188C44.8867 26.3494 45.3506 25.9531 45.404 25.4201L44.4089 25.3205ZM45.4381 24.5422C45.7495 19.8326 47.9033 15.9916 50.8934 13.0781L49.4976 11.6457C46.2161 14.8432 43.7917 19.1278 43.4425 24.4102L45.4381 24.5422ZM49.4839 11.6593C46.3397 14.8441 44.0091 19.2731 43.4139 25.2209L45.404 25.4201C45.9544 19.9201 48.0891 15.9188 50.9071 13.0644L49.4839 11.6593ZM45.4088 25.335C45.4129 25.0564 45.4209 24.7965 45.438 24.5439L43.4426 24.4085C43.4221 24.7103 43.4134 25.009 43.409 25.306L45.4088 25.335Z" fill="#A1A1A1" mask="url(#path-26-inside-11)"/>
<mask id="path-28-inside-12" fill="white">
<path d="M44.4069 25.4051C44.4069 26.0971 44.5574 31.1692 47.7015 38.2854C45.749 34.1317 44.3421 29.6478 44.4069 25.4051Z"/>
</mask>
<path d="M44.4069 25.4051C44.4069 26.0971 44.5574 31.1692 47.7015 38.2854C45.749 34.1317 44.3421 29.6478 44.4069 25.4051Z" fill="#A1A1A1"/>
<path d="M44.4069 25.4051H45.4069C45.4069 24.8558 44.9638 24.4093 44.4145 24.4052C43.8652 24.401 43.4154 24.8406 43.407 25.3898L44.4069 25.4051ZM47.7015 38.2854L46.7965 38.7108C47.0295 39.2065 47.618 39.4225 48.1163 39.1953C48.6147 38.9681 48.8376 38.3823 48.6162 37.8813L47.7015 38.2854ZM43.4069 25.4051C43.4069 26.2101 43.5767 31.4241 46.7868 38.6896L48.6162 37.8813C45.538 30.9143 45.4069 25.9841 45.4069 25.4051H43.4069ZM48.6065 37.86C46.6848 33.7719 45.3452 29.4473 45.4068 25.4204L43.407 25.3898C43.3389 29.8482 44.8131 34.4915 46.7965 38.7108L48.6065 37.86Z" fill="#A1A1A1" mask="url(#path-28-inside-12)"/>
<mask id="path-30-inside-13" fill="white">
<path d="M72.6331 6.18517H72.424H72.6331Z"/>
</mask>
<path d="M72.6331 6.18517H72.424H72.6331Z" fill="#A1A1A1"/>
<path d="M72.6331 7.18517C73.1853 7.18517 73.6331 6.73746 73.6331 6.18517C73.6331 5.63289 73.1853 5.18517 72.6331 5.18517V7.18517ZM72.424 5.18517C71.8717 5.18517 71.424 5.63289 71.424 6.18517C71.424 6.73746 71.8717 7.18517 72.424 7.18517V5.18517ZM72.6331 5.18517H72.424V7.18517H72.6331V5.18517ZM72.424 7.18517H72.6331V5.18517H72.424V7.18517Z" fill="#A1A1A1" mask="url(#path-30-inside-13)"/>
<mask id="path-32-inside-14" fill="white">
<path d="M78.7729 5.45726C80.0018 4.51905 81.1811 3.51607 82.3059 2.45248C81.1901 3.52625 80.0102 4.52972 78.7729 5.45726V5.45726Z"/>
</mask>
<path d="M78.7729 5.45726C80.0018 4.51905 81.1811 3.51607 82.3059 2.45248C81.1901 3.52625 80.0102 4.52972 78.7729 5.45726V5.45726Z" fill="#A1A1A1"/>
<path d="M82.3059 2.45248L82.9993 3.17305C83.396 2.79129 83.4095 2.16065 83.0295 1.76226C82.6495 1.36386 82.0189 1.3476 81.6189 1.72588L82.3059 2.45248ZM79.3798 6.25209C80.6366 5.29254 81.8427 4.26678 82.993 3.17909L81.6189 1.72588C80.5196 2.76537 79.367 3.74556 78.1661 4.66242L79.3798 6.25209ZM81.6125 1.73192C80.5262 2.77731 79.3775 3.75421 78.1731 4.65713L79.3728 6.25738C80.6429 5.30523 81.854 4.27518 82.9993 3.17305L81.6125 1.73192Z" fill="#A1A1A1" mask="url(#path-32-inside-14)"/>
<mask id="path-34-inside-15" fill="white">
<path d="M55.3591 8.55301C59.9875 6.01377 65.1093 5.05944 68.6213 5.8593C68.8597 5.91432 69.0959 5.96087 69.3321 6.00319C65.8493 5.37896 60.3324 5.9249 55.3591 8.55301Z"/>
</mask>
<path d="M55.3591 8.55301C59.9875 6.01377 65.1093 5.05944 68.6213 5.8593C68.8597 5.91432 69.0959 5.96087 69.3321 6.00319C65.8493 5.37896 60.3324 5.9249 55.3591 8.55301Z" fill="#A1A1A1"/>
<path d="M55.3591 8.55301L54.8781 7.67628C54.3966 7.94046 54.2182 8.54355 54.4786 9.02713C54.739 9.51071 55.3407 9.69376 55.8263 9.43715L55.3591 8.55301ZM68.6213 5.8593L68.8463 4.88492L68.8434 4.88427L68.6213 5.8593ZM69.3321 6.00319L69.1558 6.98752C69.6994 7.08491 70.219 6.72318 70.3164 6.17957C70.4139 5.63596 70.0521 5.11631 69.5085 5.01888L69.3321 6.00319ZM55.8401 9.42974C60.3306 6.96616 65.1989 6.10546 68.3993 6.83433L68.8434 4.88427C65.0196 4.01341 59.6444 5.06138 54.8781 7.67628L55.8401 9.42974ZM68.3964 6.83367C68.6552 6.89342 68.9084 6.9432 69.1558 6.98752L69.5085 5.01886C69.2834 4.97854 69.0641 4.93522 68.8463 4.88493L68.3964 6.83367ZM69.5085 5.01888C65.8017 4.35449 60.0586 4.93854 54.8919 7.66887L55.8263 9.43715C60.6062 6.91126 65.8969 6.40343 69.1557 6.98751L69.5085 5.01888Z" fill="#A1A1A1" mask="url(#path-34-inside-15)"/>
<mask id="path-36-inside-16" fill="white">
<path d="M69.4116 6.01377C70.2852 6.16212 71.1705 6.22871 72.0561 6.21268C71.1704 6.23209 70.2848 6.16549 69.4116 6.01377V6.01377Z"/>
</mask>
<path d="M69.4116 6.01377C70.2852 6.16212 71.1705 6.22871 72.0561 6.21268C71.1704 6.23209 70.2848 6.16549 69.4116 6.01377V6.01377Z" fill="#A1A1A1"/>
<path d="M72.0561 6.21268L72.078 7.21244C72.6295 7.20035 73.067 6.7441 73.0559 6.19267C73.0449 5.64125 72.5895 5.20286 72.038 5.21284L72.0561 6.21268ZM69.2442 6.99966C70.1791 7.15841 71.1264 7.22967 72.0742 7.21252L72.038 5.21284C71.2145 5.22775 70.3914 5.16584 69.579 5.02789L69.2442 6.99966ZM72.0342 5.21292C71.2132 5.23092 70.3923 5.16918 69.5828 5.02853L69.2404 6.99901C70.1774 7.1618 71.1276 7.23327 72.078 7.21244L72.0342 5.21292Z" fill="#A1A1A1" mask="url(#path-36-inside-16)"/>
<mask id="path-38-inside-17" fill="white">
<path d="M58.2336 15.2016C52.7459 17.7726 49.2025 20.6673 47.1538 22.6987C50.3235 19.4859 54.0888 16.9381 58.2336 15.2016V15.2016Z"/>
</mask>
<path d="M58.2336 15.2016C52.7459 17.7726 49.2025 20.6673 47.1538 22.6987C50.3235 19.4859 54.0888 16.9381 58.2336 15.2016V15.2016Z" fill="#A1A1A1"/>
<path d="M47.1538 22.6987L46.4419 21.9964C46.0556 22.388 46.0581 23.0182 46.4476 23.4067C46.8371 23.7952 47.4673 23.7962 47.8579 23.4088L47.1538 22.6987ZM57.8093 14.2961C52.2081 16.9203 48.5718 19.8845 46.4497 21.9886L47.8579 23.4088C49.8333 21.4501 53.2838 18.6249 58.6578 16.1071L57.8093 14.2961ZM47.8657 23.401C50.9429 20.2819 54.5977 17.8091 58.62 16.1239L57.8471 14.2793C53.5799 16.0671 49.7041 18.6898 46.4419 21.9964L47.8657 23.401Z" fill="#A1A1A1" mask="url(#path-38-inside-17)"/>
<mask id="path-40-inside-18" fill="white">
<path d="M49.4576 26.8736C49.4576 26.8736 50.0847 29.7663 51.5606 34.6564C50.0262 30.1768 48.9893 26.7509 49.4576 26.8736Z"/>
</mask>
<path d="M49.4576 26.8736C49.4576 26.8736 50.0847 29.7663 51.5606 34.6564C50.0262 30.1768 48.9893 26.7509 49.4576 26.8736Z" fill="#A1A1A1"/>
<path d="M49.4576 26.8736L50.4349 26.6618C50.3551 26.2938 50.0753 26.0018 49.7111 25.9063L49.4576 26.8736ZM51.5606 34.6564L50.6146 34.9805C50.7912 35.4962 51.3483 35.7754 51.8672 35.6083C52.386 35.4412 52.6755 34.8893 52.518 34.3675L51.5606 34.6564ZM49.4576 26.8736C48.4803 27.0855 48.4803 27.0856 48.4803 27.0857C48.4803 27.0857 48.4803 27.0858 48.4804 27.0859C48.4804 27.0861 48.4804 27.0863 48.4805 27.0866C48.4806 27.0871 48.4808 27.0878 48.481 27.0887C48.4813 27.0905 48.4819 27.0929 48.4826 27.0961C48.484 27.1024 48.486 27.1115 48.4886 27.1234C48.4939 27.1472 48.5016 27.1821 48.512 27.2279C48.5327 27.3194 48.5636 27.4545 48.6052 27.6313C48.6885 27.9848 48.8145 28.5054 48.9868 29.179C49.3314 30.5262 49.8609 32.4856 50.6033 34.9454L52.518 34.3675C51.7845 31.9371 51.2625 30.0051 50.9245 28.6835C50.7554 28.0226 50.6324 27.5144 50.552 27.1728C50.5118 27.002 50.4822 26.8728 50.4628 26.7871C50.4531 26.7442 50.446 26.7122 50.4413 26.6912C50.439 26.6807 50.4373 26.673 50.4362 26.6681C50.4357 26.6656 50.4353 26.6639 50.4351 26.6628C50.435 26.6623 50.4349 26.6619 50.4349 26.6618C50.4348 26.6617 50.4348 26.6616 50.4348 26.6616C50.4348 26.6616 50.4348 26.6617 50.4348 26.6617C50.4348 26.6617 50.4349 26.6618 49.4576 26.8736ZM52.5067 34.3324C51.7405 32.0957 51.1054 30.1417 50.721 28.7694C50.5264 28.0747 50.4076 27.5691 50.3621 27.2616C50.3361 27.086 50.3495 27.0702 50.3397 27.136C50.3372 27.1532 50.3111 27.3628 50.1256 27.5659C50.0171 27.6848 49.8624 27.7907 49.6674 27.8409C49.4796 27.8892 49.3158 27.8703 49.204 27.841L49.7111 25.9063C49.5701 25.8694 49.38 25.8496 49.1687 25.9041C48.9502 25.9603 48.775 26.079 48.6487 26.2173C48.4277 26.4593 48.3774 26.7344 48.3614 26.8422C48.3247 27.0893 48.3543 27.356 48.3836 27.5544C48.4488 27.9946 48.5973 28.6025 48.7952 29.3089C49.1957 30.7388 49.8463 32.7375 50.6146 34.9805L52.5067 34.3324Z" fill="#A1A1A1" mask="url(#path-40-inside-18)"/>
<path d="M60.0187 52.1799C60.1175 51.8108 60.2232 51.4082 60.3336 50.9772C60.9072 48.7381 61.6077 45.7261 62.1116 42.6437C62.6143 39.5687 62.927 36.3913 62.7093 33.8337C62.6005 32.5557 62.3568 31.3991 61.9151 30.4791C61.4698 29.5513 60.8071 28.8351 59.861 28.5159C54.2025 26.6067 50.3883 26.4005 49.6091 26.3759C49.4717 26.3313 49.2645 26.2664 49.0111 26.1881C62.5653 26.8276 70.9398 21.4711 75.9809 15.6492C78.7416 12.461 80.4927 9.14572 81.5539 6.62902C81.9436 5.70467 82.2408 4.88684 82.4611 4.22097C82.5712 5.25864 82.4826 6.55805 81.7492 7.7416C81.501 8.14222 81.3303 8.67596 81.1808 9.26229C81.078 9.66552 80.9777 10.1262 80.8698 10.6216C80.8197 10.8516 80.768 11.0892 80.7136 11.3319C80.3669 12.8804 79.8908 14.7457 78.96 16.7424C77.1083 20.7146 73.4256 25.2727 65.2321 28.7703C65.1833 28.7895 65.1365 28.8169 65.0939 28.8525C65.0083 28.9244 64.967 29.0071 64.9473 29.0584C64.912 29.1508 64.9134 29.2305 64.9138 29.251L64.9138 29.2514C64.9147 29.3057 64.9242 29.3517 64.9273 29.3663L64.9274 29.3669C64.9356 29.4066 64.9484 29.4527 64.9592 29.491C64.9692 29.5266 64.9797 29.5627 64.9912 29.6026C65.0102 29.6682 65.0321 29.744 65.0599 29.8441C65.1441 30.1472 65.2597 30.5974 65.3693 31.185C65.5885 32.3603 65.7848 34.0913 65.6521 36.2938C65.4152 40.2248 64.1288 45.6816 60.0187 52.1799Z" stroke="#A1A1A1" stroke-linejoin="round"/>
<path d="M48.1584 38.0822C45.5348 32.1277 45.026 27.6318 44.9291 26.0004C45.3481 26.1259 45.9291 26.3001 46.5428 26.4851C47.3883 26.7399 48.2738 27.0083 48.8467 27.1861C48.8517 27.2838 48.8637 27.3846 48.8782 27.4824C48.9385 27.8894 49.0795 28.4717 49.2766 29.1753C49.6727 30.5894 50.3183 32.5743 51.0848 34.8124C52.8675 40.6673 54.9262 46.4318 57.2536 52.0862C56.7296 51.4881 56.228 50.8933 55.747 50.3021L55.7448 50.2995C52.6854 46.5907 50.1336 42.4813 48.1584 38.0822Z" stroke="#A1A1A1" stroke-linejoin="round"/>
<path d="M77.9286 5.45605C74.9453 7.61675 71.7767 9.50325 68.4607 11.0928C64.8796 11.9683 61.39 13.1902 58.0402 14.7419C53.8397 16.5031 50.0239 19.0853 46.8112 22.3404C46.1751 22.9501 45.5826 23.6042 45.038 24.2977C45.7563 19.2299 47.8418 15.4543 50.5527 12.714C52.036 11.221 53.7365 9.96719 55.5949 8.99617L55.5966 8.99525C60.4738 6.42213 65.8777 5.89125 69.2399 6.49325C69.269 6.49846 69.2985 6.50108 69.328 6.50108H69.3647C70.2559 6.65311 71.1593 6.71967 72.0629 6.69987L72.0629 6.69995L72.0722 6.69958L72.4279 6.68517H72.6268C72.6372 6.68517 72.6476 6.68485 72.6579 6.68421C74.6228 6.56193 76.4164 6.06225 77.9286 5.45605Z" stroke="#A1A1A1" stroke-linejoin="round"/>
<path d="M50.4393 28.8077C50.2867 28.2107 50.1715 27.7371 50.0909 27.3971C51.4206 27.4833 54.8139 27.8667 59.5411 29.4634L59.5413 29.4635C60.1631 29.6732 60.6491 30.1526 61.0137 30.9119C61.3819 31.6789 61.6092 32.7011 61.7129 33.9185C61.92 36.3516 61.6234 39.4319 61.1247 42.4823C60.6273 45.5253 59.9344 48.5064 59.365 50.7291C59.1277 51.6553 58.9121 52.4488 58.7415 53.0589C56.1927 46.9986 53.9556 40.8085 52.0391 34.5134C51.3024 32.0749 50.7786 30.1359 50.4393 28.8077Z" stroke="#A1A1A1" stroke-linejoin="round"/>
<path d="M47.5038 23.0598L47.5038 23.0599L47.5104 23.0534C49.5178 21.0588 53.0144 18.1991 58.4489 15.6548C61.7579 14.1215 65.2056 12.9157 68.7438 12.0542C68.7774 12.046 68.8101 12.0343 68.8413 12.0194C72.4354 10.3002 75.8593 8.23812 79.0665 5.86107L79.0687 5.85943C79.9194 5.22167 80.7433 4.54848 81.5384 3.84167C81.3235 4.49662 81.0283 5.31413 80.6359 6.24433C79.6038 8.6912 77.9025 11.9088 75.2271 14.9978C69.9924 21.0415 60.9903 26.6415 45.8106 24.9298C46.3302 24.2668 46.896 23.6419 47.5038 23.0598Z" stroke="#A1A1A1" stroke-linejoin="round"/>
<path d="M42.2679 23.1389C42.2679 23.7251 41.8 24.1899 41.2355 24.1899C40.6711 24.1899 40.2032 23.7251 40.2032 23.1389C40.2032 22.5526 40.6711 22.0878 41.2355 22.0878C41.8 22.0878 42.2679 22.5526 42.2679 23.1389Z" fill="#A1A1A1" stroke="#A1A1A1" stroke-linejoin="round"/>
<path d="M52.7769 1.16382C52.7769 1.53617 52.4803 1.82764 52.1271 1.82764C51.774 1.82764 51.4774 1.53617 51.4774 1.16382C51.4774 0.791466 51.774 0.5 52.1271 0.5C52.4803 0.5 52.7769 0.791466 52.7769 1.16382Z" fill="#A1A1A1" stroke="#A1A1A1" stroke-linejoin="round"/>
<path d="M41.8415 32.8218C41.8415 35.2421 41.7183 37.4241 41.5215 38.993C41.436 39.6739 41.3385 40.2249 41.2356 40.6249C41.1327 40.2249 41.0351 39.6739 40.9497 38.993C40.7529 37.4241 40.6297 35.2421 40.6297 32.8218C40.6297 30.4016 40.7529 28.2195 40.9497 26.6506C41.0351 25.9697 41.1327 25.4187 41.2356 25.0187C41.3385 25.4187 41.436 25.9697 41.5215 26.6506C41.7183 28.2195 41.8415 30.4016 41.8415 32.8218ZM41.0099 41.2281C41.0099 41.2276 41.0129 41.2233 41.0191 41.2169C41.0131 41.2254 41.01 41.2286 41.0099 41.2281ZM41.4521 41.2169C41.4583 41.2233 41.4613 41.2276 41.4612 41.2281C41.4612 41.2286 41.4581 41.2254 41.4521 41.2169ZM41.4612 24.4155C41.4613 24.4161 41.4583 24.4203 41.4521 24.4268C41.4581 24.4182 41.4612 24.415 41.4612 24.4155ZM41.0191 24.4268C41.0129 24.4203 41.0099 24.4161 41.0099 24.4155C41.01 24.415 41.0131 24.4182 41.0191 24.4268Z" fill="#A1A1A1" stroke="#A1A1A1" stroke-linejoin="round"/>
<path d="M41.6746 22.9823C41.6746 10.4067 46.349 0.230644 52.1272 0.230644" stroke="#A1A1A1" stroke-width="0.75" stroke-miterlimit="10" stroke-linejoin="round"/>
<path d="M31.0335 1.52355C31.0335 1.8959 30.7368 2.18737 30.3837 2.18737C30.0305 2.18737 29.7339 1.8959 29.7339 1.52355C29.7339 1.15119 30.0305 0.859726 30.3837 0.859726C30.7368 0.859726 31.0335 1.15119 31.0335 1.52355Z" fill="#A1A1A1" stroke="#A1A1A1" stroke-linejoin="round"/>
<path d="M40.8342 23.342C40.8342 10.7664 36.1598 0.590378 30.3816 0.590378" stroke="#A1A1A1" stroke-width="0.75" stroke-miterlimit="10" stroke-linejoin="round"/>
</g>
<defs>
<clipPath id="clip0">
<rect width="83" height="55" fill="white"/>
</clipPath>
</defs>
</svg>
