<svg width="59" height="59" viewBox="0 0 59 59" fill="none" xmlns="http://www.w3.org/2000/svg">
<path d="M12.3848 46.7629L2.3679 36.746C1.17982 35.5278 0.443726 33.806 0.443726 32.1229C0.443726 31.3437 0.882798 30.1255 1.21426 29.4282L10.4606 10.1692L12.3848 46.7629Z" fill="#01579B"/>
<path d="M46.6711 12.0934L36.6542 2.07649C35.7804 1.19834 33.9595 0.152313 32.4185 0.152313C31.0927 0.152313 29.7927 0.419201 28.9533 0.922843L10.4648 10.1692L46.6711 12.0934Z" fill="#40C4FF"/>
<path d="M24.3259 58.704H48.5954V48.304L30.4901 42.5229L13.9259 48.304L24.3259 58.704Z" fill="#40C4FF"/>
<path d="M10.4606 41.3692C10.4606 44.4599 10.848 45.2176 12.3847 46.7629L13.9258 48.304H48.5953L31.648 29.045L10.4606 10.1692V41.3692Z" fill="#29B6F6"/>
<path d="M41.2775 10.1649H10.4606L48.5953 48.2997H58.9953V24.4175L46.6669 12.0891C44.9364 10.3543 43.3996 10.1649 41.2775 10.1649Z" fill="#01579B"/>
<path opacity="0.2" d="M12.7722 47.146C11.2312 45.6007 10.8481 44.0768 10.8481 41.3692V10.5523L10.4649 10.1692V41.3692C10.4606 44.0768 10.4606 44.8258 12.7722 47.146L13.9259 48.2997L12.7722 47.146Z" fill="white"/>
<path opacity="0.2" d="M58.6123 24.0344V47.9165H48.2123L48.5954 48.304H58.9954V24.4175L58.6123 24.0344Z" fill="#263238"/>
<path opacity="0.2" d="M46.6711 12.0934C44.7599 10.1821 43.1973 10.1692 40.8943 10.1692H10.4648L10.848 10.5523H40.8943C42.0436 10.5523 44.945 10.3586 46.6711 12.0934Z" fill="white"/>
<path opacity="0.2" d="M58.6122 24.0344L46.6712 12.0934L36.6543 2.07649C35.7804 1.19834 33.9596 0.152313 32.4185 0.152313C31.0927 0.152313 29.7927 0.419201 28.9533 0.922843L10.4649 10.1692L1.21853 29.4281C0.887071 30.1298 0.447998 31.348 0.447998 32.1228C0.447998 33.806 1.1884 35.5235 2.37217 36.746L11.6013 45.9106C11.8208 46.1818 12.0791 46.4573 12.3848 46.7629L12.7679 47.146L13.9215 48.2997L23.9384 58.3166L24.3215 58.6997H48.2036H48.5867V48.2997H58.9867V48.2738V24.4175L58.6122 24.0344Z" fill="url(#paint0_radial)"/>
<defs>
<radialGradient id="paint0_radial" cx="0" cy="0" r="1" gradientUnits="userSpaceOnUse" gradientTransform="translate(29.7174 29.4269) scale(29.2715)">
<stop stop-color="white" stop-opacity="0.1"/>
<stop offset="1" stop-color="white" stop-opacity="0"/>
</radialGradient>
</defs>
</svg>
