<svg width="45" height="45" viewBox="0 0 45 45" fill="none" xmlns="http://www.w3.org/2000/svg">
<path d="M29.206 11.9722H15.7939C13.6532 11.9722 11.9115 13.7139 11.9115 15.8546V29.2667C11.9115 31.4075 13.6532 33.1496 15.7939 33.1496H29.206C31.3468 33.1496 33.0889 31.408 33.0889 29.2667V15.8546C33.0889 13.7139 31.3473 11.9722 29.206 11.9722ZM22.5 29.5324C18.6561 29.5324 15.5287 26.405 15.5287 22.5607C15.5287 18.7168 18.6561 15.5894 22.5 15.5894C26.3443 15.5894 29.4717 18.7168 29.4717 22.5607C29.4717 26.4045 26.3438 29.5324 22.5 29.5324ZM29.6958 17.0308C28.7859 17.0308 28.0459 16.2908 28.0459 15.3814C28.0459 14.4719 28.7859 13.7319 29.6958 13.7319C30.6053 13.7319 31.3453 14.4719 31.3453 15.3814C31.3453 16.2908 30.6053 17.0308 29.6958 17.0308Z" fill="url(#paint0_linear)"/>
<path d="M22.4999 18.5353C20.281 18.5353 18.4741 20.3412 18.4741 22.5602C18.4741 24.7801 20.281 26.5865 22.4999 26.5865C24.7199 26.5865 26.5253 24.7801 26.5253 22.5602C26.5253 20.3417 24.7194 18.5353 22.4999 18.5353Z" fill="url(#paint1_linear)"/>
<path d="M22.5 0C10.0741 0 0 10.0741 0 22.5C0 34.9259 10.0741 45 22.5 45C34.9259 45 45 34.9259 45 22.5C45 10.0741 34.9259 0 22.5 0ZM36.0344 29.2667C36.0344 33.0323 32.9717 36.0951 29.206 36.0951H15.794C12.0288 36.0951 8.96561 33.0323 8.96561 29.2667V15.8546C8.96561 12.0895 12.0288 9.02627 15.794 9.02627H29.206C32.9717 9.02627 36.0344 12.0895 36.0344 15.8546V29.2667Z" fill="url(#paint2_linear)"/>
<defs>
<linearGradient id="paint0_linear" x1="22.5002" y1="11.9722" x2="22.5002" y2="33.1496" gradientUnits="userSpaceOnUse">
<stop stop-color="#603AE3"/>
<stop offset="0.177083" stop-color="#BE22A5" stop-opacity="0.942708"/>
<stop offset="0.369792" stop-color="#FB234B"/>
<stop offset="0.598958" stop-color="#FE293E"/>
<stop offset="0.786458" stop-color="#FC5A31"/>
<stop offset="1" stop-color="#FECE6A"/>
</linearGradient>
<linearGradient id="paint1_linear" x1="22.4997" y1="18.5353" x2="22.4997" y2="26.5865" gradientUnits="userSpaceOnUse">
<stop stop-color="#603AE3"/>
<stop offset="0.177083" stop-color="#BE22A5" stop-opacity="0.942708"/>
<stop offset="0.369792" stop-color="#FB234B"/>
<stop offset="0.598958" stop-color="#FE293E"/>
<stop offset="0.786458" stop-color="#FC5A31"/>
<stop offset="1" stop-color="#FECE6A"/>
</linearGradient>
<linearGradient id="paint2_linear" x1="22.5" y1="0" x2="22.5" y2="45" gradientUnits="userSpaceOnUse">
<stop stop-color="#603AE3"/>
<stop offset="0.177083" stop-color="#BE22A5" stop-opacity="0.942708"/>
<stop offset="0.369792" stop-color="#FB234B"/>
<stop offset="0.598958" stop-color="#FE293E"/>
<stop offset="0.786458" stop-color="#FC5A31"/>
<stop offset="1" stop-color="#FECE6A"/>
</linearGradient>
</defs>
</svg>
