<svg width="24" height="22" viewBox="0 0 24 22" fill="none" xmlns="http://www.w3.org/2000/svg">
<path d="M1.89478 10.9034C1.89478 16.2857 6.41915 20.649 12 20.649C17.5809 20.649 22.1053 16.2857 22.1053 10.9034C22.1053 5.52124 17.5809 1.1579 12 1.1579C6.41915 1.1579 1.89478 5.52124 1.89478 10.9034Z" fill="url(#paint0_radial)"/>
<path d="M12.0001 19.9254C17.363 19.9254 21.7106 15.8861 21.7106 10.9034C21.7106 5.92075 17.363 1.88139 12.0001 1.88139C6.63717 1.88139 2.28955 5.92075 2.28955 10.9034C2.28955 15.8861 6.63717 19.9254 12.0001 19.9254Z" fill="#777BB3"/>
<path d="M7.38501 12.022C7.82598 12.022 8.15518 11.8729 8.36348 11.579C8.56955 11.2881 8.71187 10.7842 8.78647 10.0812C8.85602 9.42411 8.82952 8.96531 8.70774 8.71771C8.58322 8.46483 8.31399 8.33657 7.90756 8.33657H7.20285L6.81217 12.022H7.38501ZM5.08008 16.5618C5.04737 16.5618 5.0163 16.535 4.9955 16.4886C4.97467 16.4423 4.96623 16.3813 4.97248 16.3224L6.00785 6.55598C6.01787 6.46156 6.06301 6.39335 6.11549 6.39335H8.347C9.04831 6.39335 9.57031 6.74246 9.89842 7.4311C10.2283 8.12336 10.3301 9.09101 10.2012 10.3071C10.1487 10.8026 10.0584 11.2627 9.93285 11.6747C9.80715 12.0871 9.64104 12.4687 9.43903 12.8091C9.19721 13.224 8.92353 13.5249 8.62631 13.7019C8.3338 13.8766 7.95814 13.9652 7.50979 13.9652H6.60621L6.34817 16.3991C6.33815 16.4936 6.29305 16.5618 6.24057 16.5618H5.08008Z" fill="black"/>
<path d="M7.29327 8.53757H7.9076C8.39813 8.53757 8.56852 8.7349 8.62642 8.8525C8.72247 9.04776 8.7406 9.45946 8.67887 10.043C8.60949 10.6964 8.48091 11.1596 8.29663 11.4197C8.10796 11.686 7.80124 11.8209 7.38504 11.8209H6.94521L7.29327 8.53757ZM8.34703 6.1923H6.11549C6.01052 6.1923 5.92028 6.32873 5.90025 6.51762L4.86487 16.2841C4.85237 16.4019 4.86926 16.5238 4.91089 16.6165C4.95256 16.7092 5.01462 16.7628 5.08011 16.7628H6.24057C6.34557 16.7628 6.43581 16.6263 6.45584 16.4374L6.69663 14.1662H7.50983C7.96969 14.1662 8.35683 14.0743 8.66037 13.893C8.97254 13.7071 9.25975 13.3918 9.51395 12.956C9.72419 12.6014 9.89736 12.2034 10.0286 11.7728C10.1598 11.3422 10.2541 10.8619 10.3088 10.3454C10.4446 9.06532 10.3343 8.04024 9.98102 7.29886C9.63117 6.56459 9.08139 6.1923 8.34703 6.1923ZM6.67916 12.223H7.38504C7.85292 12.223 8.20142 12.0614 8.4304 11.7383C8.65942 11.415 8.81388 10.8755 8.89414 10.1196C8.97093 9.39372 8.93596 8.88152 8.78921 8.58313C8.64228 8.28475 8.34846 8.13552 7.9076 8.13552H7.11249L6.67916 12.223V12.223ZM8.34703 6.59434C9.01834 6.59434 9.50807 6.91732 9.81589 7.56334C10.1237 8.20936 10.2164 9.11109 10.0936 10.2688C10.043 10.7457 9.95752 11.1817 9.83716 11.5767C9.71666 11.972 9.55931 12.3334 9.36487 12.6612C9.13314 13.0587 8.87572 13.342 8.59246 13.5107C8.3092 13.6799 7.94842 13.7642 7.50983 13.7642H6.51582L6.24057 16.3607H5.08011L6.11549 6.59434H8.34703" fill="white"/>
<path d="M12.8619 13.9652C12.8292 13.9652 12.7981 13.9384 12.7773 13.892C12.7565 13.8457 12.748 13.7848 12.7543 13.7259L13.2123 9.4046C13.2558 8.99364 13.2451 8.69867 13.182 8.57404C13.1435 8.49785 13.0275 8.37007 12.6847 8.37007H11.855L11.2791 13.8025C11.2691 13.897 11.224 13.9652 11.1715 13.9652H10.0202C9.98743 13.9652 9.9564 13.9384 9.93557 13.892C9.91473 13.8457 9.90629 13.7848 9.91254 13.7259L10.9479 3.95942C10.9579 3.86501 11.0031 3.7968 11.0556 3.7968H12.2069C12.2396 3.7968 12.2706 3.8236 12.2915 3.8699C12.3123 3.91627 12.3208 3.97718 12.3145 4.03615L12.0647 6.39334H12.9573C13.6373 6.39334 14.0984 6.61313 14.367 7.0653C14.6407 7.52658 14.7261 8.26413 14.6209 9.25772L14.1391 13.8025C14.1291 13.897 14.084 13.9652 14.0315 13.9652H12.8619Z" fill="black"/>
<path d="M12.2069 3.59577H11.0556C10.9506 3.59577 10.8603 3.7322 10.8403 3.92109L9.80494 13.6875C9.79244 13.8054 9.80932 13.9273 9.85099 14.02C9.89266 14.1126 9.95472 14.1662 10.0202 14.1662H11.1715C11.2765 14.1662 11.3668 14.0298 11.3868 13.8409L11.9454 8.57109H12.6848C13.027 8.57109 13.0988 8.7051 13.1017 8.71087C13.1224 8.75181 13.1497 8.94144 13.1047 9.36627L12.6467 13.6875C12.6342 13.8054 12.6511 13.9273 12.6927 14.02C12.7344 14.1126 12.7965 14.1662 12.8619 14.1662H14.0315C14.1365 14.1662 14.2268 14.0298 14.2468 13.8409L14.7285 9.29611C14.8415 8.22928 14.7448 7.42901 14.4412 6.91734C14.1514 6.42946 13.666 6.19232 12.9573 6.19232H12.1977L12.4222 4.07454C12.4346 3.95667 12.4178 3.83472 12.3761 3.74211C12.3345 3.64944 12.2724 3.59577 12.2069 3.59577ZM12.2069 3.99781L11.9317 6.59436H12.9573C13.6027 6.59436 14.0478 6.80088 14.2928 7.21338C14.5378 7.62615 14.6112 8.29495 14.5133 9.21945L14.0315 13.7642H12.8619L13.32 9.44299C13.3721 8.95142 13.3529 8.61612 13.2624 8.43734C13.1719 8.25856 12.9793 8.16904 12.6848 8.16904H11.7646L11.1715 13.7642H10.0202L11.0556 3.99781H12.2069Z" fill="white"/>
<path d="M16.4425 12.022C16.8835 12.022 17.2127 11.8729 17.421 11.579C17.627 11.2882 17.7694 10.7842 17.844 10.0812C17.9136 9.42411 17.8871 8.96531 17.7652 8.71771C17.6407 8.46483 17.3715 8.33657 16.9651 8.33657H16.2603L15.8697 12.022H16.4425ZM14.1376 16.5618C14.1049 16.5618 14.0738 16.535 14.053 16.4886C14.0322 16.4423 14.0237 16.3813 14.03 16.3224L15.0653 6.55598C15.0754 6.46156 15.1205 6.39335 15.173 6.39335H17.4045C18.1058 6.39335 18.6278 6.74246 18.9559 7.4311C19.2858 8.12329 19.3876 9.09095 19.2587 10.3071C19.2061 10.8026 19.1159 11.2627 18.9903 11.6747C18.8646 12.0871 18.6985 12.4687 18.4965 12.8091C18.2547 13.224 17.981 13.5249 17.6838 13.7019C17.3913 13.8766 17.0156 13.9652 16.5673 13.9652H15.6637L15.4057 16.3991C15.3957 16.4936 15.3506 16.5618 15.2981 16.5618H14.1376Z" fill="black"/>
<path d="M16.3508 8.53757H16.9652C17.4557 8.53757 17.6261 8.7349 17.684 8.8525C17.7801 9.04776 17.7982 9.45946 17.7364 10.043C17.6671 10.6964 17.5385 11.1596 17.3542 11.4197C17.1655 11.686 16.8588 11.8209 16.4426 11.8209H16.0028L16.3508 8.53757ZM17.4046 6.1923H15.1731C15.0681 6.1923 14.9779 6.32872 14.9579 6.51762L13.9225 16.2841C13.91 16.4019 13.9269 16.5238 13.9685 16.6165C14.0102 16.7092 14.0722 16.7628 14.1377 16.7628H15.2982C15.4032 16.7628 15.4934 16.6263 15.5135 16.4374L15.7542 14.1662H16.5674C17.0273 14.1662 17.4144 14.0743 17.7179 13.893C18.0301 13.7071 18.3174 13.3917 18.5716 12.9558C18.7818 12.6013 18.9549 12.2034 19.0861 11.7728C19.2174 11.3422 19.3117 10.8619 19.3664 10.3454C19.5022 9.06525 19.3919 8.04017 19.0386 7.29879C18.6887 6.56459 18.139 6.1923 17.4046 6.1923ZM15.7368 12.223H16.4426C16.9105 12.223 17.259 12.0614 17.488 11.7383C17.717 11.415 17.8715 10.8755 17.9517 10.1195C18.0285 9.39372 17.9936 8.88152 17.8468 8.58313C17.6999 8.28475 17.406 8.13552 16.9652 8.13552H16.1701L15.7368 12.223ZM17.4046 6.59434C18.0759 6.59434 18.5656 6.91732 18.8735 7.56334C19.1813 8.20936 19.2739 9.11108 19.1511 10.2688C19.1006 10.7457 19.0151 11.1817 18.8947 11.5767C18.7742 11.972 18.6169 12.3334 18.4224 12.6612C18.1907 13.0587 17.9333 13.342 17.65 13.5107C17.3668 13.6799 17.006 13.7642 16.5674 13.7642H15.5734L15.2982 16.3607H14.1377L15.1731 6.59434H17.4046" fill="white"/>
<defs>
<radialGradient id="paint0_radial" cx="0" cy="0" r="1" gradientUnits="userSpaceOnUse" gradientTransform="translate(7.96202 4.58413) scale(13.2696 24.3277)">
<stop stop-color="#AEB2D5"/>
<stop offset="0.3" stop-color="#AEB2D5"/>
<stop offset="0.75" stop-color="#484C89"/>
<stop offset="1" stop-color="#484C89"/>
</radialGradient>
</defs>
</svg>
