<svg id="Capa_1" enable-background="new 0 0 512 512" height="512" viewBox="0 0 512 512" width="512" xmlns="http://www.w3.org/2000/svg"><g><g><path d="m2.838 10.302v409.743l2.07 1h19.812v-387.513c0-6.424 5.227-11.651 11.651-11.651h186.097c6.424 0 11.651 5.227 11.651 11.651v387.512h20.881l1-1v-420.044h-242.86c-5.69 0-10.302 4.612-10.302 10.302z" fill="#7a8c98"/></g><g><path d="m487.28 420.044v42.043c0 6.424-5.227 11.651-11.65 11.651h-186.098c-6.424 0-11.65-5.227-11.65-11.651v-42.043h-21.882l-1 1.956v86.6l1 3.4h248.011c2.845 0 5.151-2.306 5.151-5.151v-86.805z" fill="#b6c4cf"/></g><g><path d="m498.86 0h-242.86l-1 4.333v414.667l1 1.044 1.567 1h20.315v-387.512c0-6.424 5.227-11.651 11.65-11.651h186.098c6.424 0 11.65 5.227 11.65 11.651v387.512h20.115l1.766-1v-409.742c.001-5.69-4.611-10.302-10.301-10.302z" fill="#7a8c98"/></g><g><g><path d="m24.72 33.532c0-6.424 5.227-11.651 11.651-11.651h14.623v-11.58c0-5.689 4.612-10.301 10.302-10.301h-48.156c-5.69 0-10.302 4.612-10.302 10.302v409.742h21.882z" fill="#596c76"/></g><g><path d="m289.532 473.738c-6.424 0-11.65-5.227-11.65-11.651v-42.043h-21.882v91.956h47.651v-38.262z" fill="#9facba"/></g><g><path d="m277.882 33.532c0-6.424 5.227-11.651 11.65-11.651h14.119v-21.881h-47.651v420.044h21.882z" fill="#596c76"/></g><path d="m284.381 102.957h196.399v288.706h-196.399z" fill="#b6c4cf"/><g><path d="m311.104 166.889c0-2.845 2.306-5.151 5.151-5.151h15.978v-57.781h-47.852v155.886h26.723z" fill="#9facba"/></g><path d="m454.057 260.843v-93.954c0-2.845-2.306-5.151-5.151-5.151h-132.651c-2.845 0-5.151 2.306-5.151 5.151v93.954z" fill="#596c76"/><path d="m331.541 238.026c-1.33 0-2.408-1.078-2.408-2.409v-49.653c0-1.33 1.078-2.408 2.408-2.408h11.236v-16.667c0-2.845 2.306-5.151 5.151-5.151h-31.673c-2.845 0-5.151 2.306-5.151 5.151v92.954h31.673v-21.818h-11.236z" fill="#465a61"/><g><g><path d="m284.381 338.63h196.399v53.033h-196.399z" fill="#7a8c98"/></g><g><path d="m284.381 338.63h47.852v53.033h-47.852z" fill="#596c76"/></g><g><g><g><path d="m458.643 372.647h-23.84c-4.143 0-7.5-3.358-7.5-7.5s3.357-7.5 7.5-7.5h23.84c4.143 0 7.5 3.358 7.5 7.5s-3.357 7.5-7.5 7.5z" fill="#fac600"/></g><g><path d="m306.519 377.755c-4.143 0-7.5-3.358-7.5-7.5v-10.217c0-4.142 3.357-7.5 7.5-7.5s7.5 3.358 7.5 7.5v10.217c0 4.142-3.357 7.5-7.5 7.5z" fill="#fff"/></g><g><path d="m326.954 377.755c-4.143 0-7.5-3.358-7.5-7.5v-10.217c0-4.142 3.357-7.5 7.5-7.5s7.5 3.358 7.5 7.5v10.217c0 4.142-3.358 7.5-7.5 7.5z" fill="#fff"/></g><g><path d="m347.388 377.755c-4.143 0-7.5-3.358-7.5-7.5v-10.217c0-4.142 3.357-7.5 7.5-7.5s7.5 3.358 7.5 7.5v10.217c0 4.142-3.357 7.5-7.5 7.5z" fill="#fff"/></g><g><path d="m367.823 377.755c-4.143 0-7.5-3.358-7.5-7.5v-10.217c0-4.142 3.357-7.5 7.5-7.5s7.5 3.358 7.5 7.5v10.217c0 4.142-3.358 7.5-7.5 7.5z" fill="#fff"/></g><g><circle cx="413.801" cy="365.147" fill="#fac600" r="7.5"/></g><g><circle cx="393.366" cy="365.309" fill="#fac600" r="7.5"/></g></g></g></g><g><g><path d="m284.381 391.663v70.425c0 2.845 2.306 5.151 5.151 5.151h186.098c2.845 0 5.151-2.306 5.151-5.151v-70.425z" fill="#b6c4cf"/></g><g><path d="m332.233 462.088v-70.425h-47.852v70.425c0 2.845 2.306 5.151 5.151 5.151h47.852c-2.845-.001-5.151-2.307-5.151-5.151z" fill="#9facba"/></g></g><g><g><path d="m284.381 285.598h196.399v53.033h-196.399z" fill="#e8edf2"/></g><g><path d="m284.381 285.598h47.852v53.033h-47.852z" fill="#d9e7ec"/></g><g><g><g><path d="m458.643 319.614h-23.84c-4.143 0-7.5-3.358-7.5-7.5s3.357-7.5 7.5-7.5h23.84c4.143 0 7.5 3.358 7.5 7.5s-3.357 7.5-7.5 7.5z" fill="#46cc8d"/></g><g><path d="m306.519 324.723c-4.143 0-7.5-3.358-7.5-7.5v-10.217c0-4.142 3.357-7.5 7.5-7.5s7.5 3.358 7.5 7.5v10.217c0 4.142-3.357 7.5-7.5 7.5z" fill="#01d0fb"/></g><g><path d="m326.954 324.723c-4.143 0-7.5-3.358-7.5-7.5v-10.217c0-4.142 3.357-7.5 7.5-7.5s7.5 3.358 7.5 7.5v10.217c0 4.142-3.358 7.5-7.5 7.5z" fill="#01d0fb"/></g><g><path d="m347.388 324.723c-4.143 0-7.5-3.358-7.5-7.5v-10.217c0-4.142 3.357-7.5 7.5-7.5s7.5 3.358 7.5 7.5v10.217c0 4.142-3.357 7.5-7.5 7.5z" fill="#01d0fb"/></g><g><path d="m367.823 324.723c-4.143 0-7.5-3.358-7.5-7.5v-10.217c0-4.142 3.357-7.5 7.5-7.5s7.5 3.358 7.5 7.5v10.217c0 4.142-3.358 7.5-7.5 7.5z" fill="#01d0fb"/></g><g><circle cx="413.801" cy="312.114" fill="#46cc8d" r="7.5"/></g><g><circle cx="393.366" cy="312.276" fill="#46cc8d" r="7.5"/></g></g></g></g><g><path d="m284.381 33.532v70.425h196.399v-70.425c0-2.845-2.306-5.151-5.151-5.151h-186.097c-2.844 0-5.151 2.307-5.151 5.151z" fill="#8d9ca8"/></g><g><path d="m337.384 28.381h-47.852c-2.845 0-5.151 2.306-5.151 5.151v70.425h47.852v-70.425c0-2.844 2.306-5.151 5.151-5.151z" fill="#7a8c98"/></g><g><path d="m284.381 259.843h196.399v25.755h-196.399z" fill="#7a8c98"/></g><g><path d="m284.381 259.843h47.852v25.755h-47.852z" fill="#596c76"/></g><g><path d="m475.63 474.738h-186.098c-6.976 0-12.65-5.675-12.65-12.651v-428.555c0-6.976 5.675-12.651 12.65-12.651h186.098c6.976 0 12.65 5.675 12.65 12.651v428.555c0 6.976-5.675 12.651-12.65 12.651zm-183.748-15h181.398v-423.857h-181.398zm183.748-423.857h.01z" fill="#465a61"/></g><g><g><g><g><path d="m371.228 85.589h-61.304c-4.142 0-7.5-3.358-7.5-7.5s3.358-7.5 7.5-7.5h61.304c4.142 0 7.5 3.358 7.5 7.5s-3.358 7.5-7.5 7.5z" fill="#fac600"/></g><g><path d="m371.228 61.749h-61.304c-4.142 0-7.5-3.358-7.5-7.5s3.358-7.5 7.5-7.5h61.304c4.142 0 7.5 3.358 7.5 7.5s-3.358 7.5-7.5 7.5z" fill="#fac600"/></g><g><circle cx="399.608" cy="54.249" fill="#596c76" r="7.5"/></g><g><circle cx="399.608" cy="78.089" fill="#596c76" r="7.5"/></g><g><circle cx="418.151" cy="54.249" fill="#596c76" r="7.5"/></g><g><circle cx="418.151" cy="78.089" fill="#596c76" r="7.5"/></g><g><circle cx="436.694" cy="54.249" fill="#fac600" r="7.5"/></g><g><circle cx="436.694" cy="78.089" fill="#596c76" r="7.5"/></g><g><circle cx="455.238" cy="54.249" fill="#fac600" r="7.5"/></g><g><circle cx="455.238" cy="78.089" fill="#fac600" r="7.5"/></g></g></g></g><g><g><g><g><path d="m371.228 443.84h-61.304c-4.142 0-7.5-3.358-7.5-7.5s3.358-7.5 7.5-7.5h61.304c4.142 0 7.5 3.358 7.5 7.5s-3.358 7.5-7.5 7.5z" fill="#596c76"/></g><g><path d="m371.228 420h-61.304c-4.142 0-7.5-3.358-7.5-7.5s3.358-7.5 7.5-7.5h61.304c4.142 0 7.5 3.358 7.5 7.5s-3.358 7.5-7.5 7.5z" fill="#465a61"/></g><g><circle cx="399.608" cy="412.5" fill="#01d0fb" r="7.5"/></g><g><circle cx="399.608" cy="436.34" fill="#fff" r="7.5"/></g><g><circle cx="418.151" cy="412.5" fill="#01d0fb" r="7.5"/></g><g><circle cx="418.151" cy="436.34" fill="#fff" r="7.5"/></g><g><circle cx="436.694" cy="412.5" fill="#465a61" r="7.5"/></g><g><circle cx="436.694" cy="436.34" fill="#fff" r="7.5"/></g><g><circle cx="455.238" cy="412.5" fill="#465a61" r="7.5"/></g><g><circle cx="455.238" cy="436.34" fill="#596c76" r="7.5"/></g></g></g></g><g><path d="m329.133 235.617v-49.653c0-1.33 1.078-2.409 2.409-2.409h102.08c1.33 0 2.409 1.078 2.409 2.409v49.653c0 1.33-1.078 2.409-2.409 2.409h-102.08c-1.331 0-2.409-1.079-2.409-2.409z" fill="#01d0fb"/></g><path d="m355 235.617v-49.653c0-1.33 1.078-2.408 2.409-2.408h-25.867c-1.33 0-2.408 1.078-2.408 2.408v49.653c0 1.33 1.078 2.409 2.408 2.409h25.867c-1.331 0-2.409-1.079-2.409-2.409z" fill="#01c0fa"/><g><path d="m234.119 462.087c0 6.424-5.227 11.651-11.651 11.651h-186.097c-6.424 0-11.651-5.227-11.651-11.651v-42.043h-21.882v86.805c0 2.845 2.306 5.151 5.151 5.151h248.011v-91.956h-21.881z" fill="#b6c4cf"/></g><g><path d="m50.994 506.849v-33.111h-14.623c-6.424 0-11.651-5.227-11.651-11.651v-42.043h-21.882v86.805c0 2.845 2.306 5.151 5.151 5.151h48.156c-2.845 0-5.151-2.306-5.151-5.151z" fill="#9facba"/></g><g><g><g><path d="m31.22 285.598h196.399v53.033h-196.399z" fill="#7a8c98"/></g><g><path d="m31.22 285.598h47.589v53.033h-47.589z" fill="#596c76"/></g><g><path d="m205.481 304.614h-23.84c-4.142 0-7.5 3.358-7.5 7.5s3.358 7.5 7.5 7.5h23.84c4.142 0 7.5-3.358 7.5-7.5s-3.358-7.5-7.5-7.5z" fill="#fff"/><g fill="#465a61"><path d="m53.357 299.505c-4.142 0-7.5 3.358-7.5 7.5v10.217c0 4.142 3.358 7.5 7.5 7.5s7.5-3.358 7.5-7.5v-10.217c0-4.142-3.358-7.5-7.5-7.5z"/><path d="m73.792 299.505c-4.142 0-7.5 3.358-7.5 7.5v10.217c0 4.142 3.358 7.5 7.5 7.5s7.5-3.358 7.5-7.5v-10.217c0-4.142-3.358-7.5-7.5-7.5z"/><path d="m94.226 299.505c-4.142 0-7.5 3.358-7.5 7.5v10.217c0 4.142 3.358 7.5 7.5 7.5s7.5-3.358 7.5-7.5v-10.217c0-4.142-3.358-7.5-7.5-7.5z"/><path d="m114.661 299.505c-4.142 0-7.5 3.358-7.5 7.5v10.217c0 4.142 3.358 7.5 7.5 7.5s7.5-3.358 7.5-7.5v-10.217c0-4.142-3.358-7.5-7.5-7.5z"/></g><circle cx="160.639" cy="312.114" fill="#fff" r="7.5"/><circle cx="140.204" cy="312.276" fill="#fff" r="7.5"/></g></g></g><g><g><path d="m31.22 338.63h196.399v53.033h-196.399z" fill="#01d0fb"/></g><g><path d="m31.22 338.63h47.589v53.033h-47.589z" fill="#01c0fa"/></g></g><g><path d="m31.22 156.99h196.399v53.033h-196.399z" fill="#7a8c98"/></g><g><path d="m31.22 156.99h47.589v53.033h-47.589z" fill="#596c76"/></g><g><path d="m31.22 103.957h196.399v53.033h-196.399z" fill="#99e6fc"/></g><g><path d="m31.22 103.957h47.589v53.033h-47.589z" fill="#62dbfb"/></g><g><g><path d="m31.22 210.022h196.399v75.576h-196.399z" fill="#b6c4cf"/></g><g><path d="m31.22 210.022h47.589v75.576h-47.589z" fill="#9facba"/></g><g><g><g><path d="m118.066 267.23h-61.304c-4.142 0-7.5-3.358-7.5-7.5s3.358-7.5 7.5-7.5h61.304c4.142 0 7.5 3.358 7.5 7.5s-3.358 7.5-7.5 7.5z" fill="#01c0fa"/></g><g><path d="m118.066 243.39h-61.304c-4.142 0-7.5-3.358-7.5-7.5s3.358-7.5 7.5-7.5h61.304c4.142 0 7.5 3.358 7.5 7.5s-3.358 7.5-7.5 7.5z" fill="#01c0fa"/></g><g><circle cx="146.446" cy="235.89" fill="#fff" r="7.5"/></g><g><circle cx="146.446" cy="259.73" fill="#fff" r="7.5"/></g><g><circle cx="164.989" cy="235.89" fill="#fff" r="7.5"/></g><g><circle cx="164.989" cy="259.73" fill="#fff" r="7.5"/></g><g><circle cx="183.533" cy="235.89" fill="#fff" r="7.5"/></g><g><circle cx="183.533" cy="259.73" fill="#fff" r="7.5"/></g><g><circle cx="202.076" cy="235.89" fill="#fff" r="7.5"/></g><g><circle cx="202.076" cy="259.73" fill="#fff" r="7.5"/></g></g></g></g><g><g><path d="m31.22 33.532v70.425h196.399v-70.425c0-2.845-2.306-5.151-5.151-5.151h-186.098c-2.844 0-5.15 2.307-5.15 5.151z" fill="#e8edf2"/></g><g><path d="m83.96 28.381h-47.59c-2.845 0-5.151 2.306-5.151 5.151v70.425h47.589v-70.425c.001-2.844 2.307-5.151 5.152-5.151z" fill="#d9e7ec"/></g></g><g><g><g><path d="m118.066 85.589h-61.304c-4.142 0-7.5-3.358-7.5-7.5s3.358-7.5 7.5-7.5h61.304c4.142 0 7.5 3.358 7.5 7.5s-3.358 7.5-7.5 7.5z" fill="#01c0fa"/></g><g><path d="m118.066 61.749h-61.304c-4.142 0-7.5-3.358-7.5-7.5s3.358-7.5 7.5-7.5h61.304c4.142 0 7.5 3.358 7.5 7.5s-3.358 7.5-7.5 7.5z" fill="#46cc8d"/></g><g><circle cx="146.446" cy="54.249" fill="#46cc8d" r="7.5"/></g><g><circle cx="146.446" cy="78.089" fill="#01c0fa" r="7.5"/></g><g><circle cx="164.989" cy="54.249" fill="#46cc8d" r="7.5"/></g><g><circle cx="164.989" cy="78.089" fill="#01c0fa" r="7.5"/></g><g><circle cx="183.533" cy="54.249" fill="#46cc8d" r="7.5"/></g><g><circle cx="183.533" cy="78.089" fill="#01c0fa" r="7.5"/></g><g><circle cx="202.076" cy="54.249" fill="#46cc8d" r="7.5"/></g><g><circle cx="202.076" cy="78.089" fill="#01c0fa" r="7.5"/></g></g></g><g><g><path d="m31.22 391.663v70.425c0 2.845 2.306 5.151 5.151 5.151h186.097c2.845 0 5.151-2.306 5.151-5.151v-70.425z" fill="#e8edf2"/></g><g><path d="m78.809 462.088v-70.425h-47.589v70.425c0 2.845 2.306 5.151 5.151 5.151h47.589c-2.845-.001-5.151-2.307-5.151-5.151z" fill="#d9e7ec"/></g></g><g><g><g><path d="m118.066 443.84h-61.304c-4.142 0-7.5-3.358-7.5-7.5s3.358-7.5 7.5-7.5h61.304c4.142 0 7.5 3.358 7.5 7.5s-3.358 7.5-7.5 7.5z" fill="#46cc8d"/></g><g><path d="m118.066 420h-61.304c-4.142 0-7.5-3.358-7.5-7.5s3.358-7.5 7.5-7.5h61.304c4.142 0 7.5 3.358 7.5 7.5s-3.358 7.5-7.5 7.5z" fill="#01c0fa"/></g><g><circle cx="146.446" cy="412.5" fill="#01c0fa" r="7.5"/></g><g><circle cx="146.446" cy="436.34" fill="#46cc8d" r="7.5"/></g><g><circle cx="164.989" cy="412.5" fill="#01c0fa" r="7.5"/></g><g><circle cx="164.989" cy="436.34" fill="#46cc8d" r="7.5"/></g><g><circle cx="183.533" cy="412.5" fill="#01c0fa" r="7.5"/></g><g><circle cx="183.533" cy="436.34" fill="#46cc8d" r="7.5"/></g><g><circle cx="202.076" cy="412.5" fill="#01c0fa" r="7.5"/></g><g><circle cx="202.076" cy="436.34" fill="#46cc8d" r="7.5"/></g></g></g><path d="m222.468 20.881h-186.097c-6.976 0-12.651 5.675-12.651 12.651v428.555c0 6.976 5.675 12.651 12.651 12.651h186.097c6.976 0 12.651-5.675 12.651-12.651v-428.555c0-6.975-5.676-12.651-12.651-12.651zm-2.349 438.857h-181.399v-423.857h181.399z" fill="#465a61"/><path d="m181.641 372.646h23.84c4.142 0 7.5-3.358 7.5-7.5s-3.358-7.5-7.5-7.5h-23.84c-4.142 0-7.5 3.358-7.5 7.5s3.358 7.5 7.5 7.5z" fill="#fff"/><g fill="#99e6fc"><path d="m53.357 377.755c4.142 0 7.5-3.358 7.5-7.5v-10.217c0-4.142-3.358-7.5-7.5-7.5s-7.5 3.358-7.5 7.5v10.217c0 4.142 3.358 7.5 7.5 7.5z"/><path d="m73.792 377.755c4.142 0 7.5-3.358 7.5-7.5v-10.217c0-4.142-3.358-7.5-7.5-7.5s-7.5 3.358-7.5 7.5v10.217c0 4.142 3.358 7.5 7.5 7.5z"/><path d="m94.226 377.755c4.142 0 7.5-3.358 7.5-7.5v-10.217c0-4.142-3.358-7.5-7.5-7.5s-7.5 3.358-7.5 7.5v10.217c0 4.142 3.358 7.5 7.5 7.5z"/><path d="m114.661 377.755c4.142 0 7.5-3.358 7.5-7.5v-10.217c0-4.142-3.358-7.5-7.5-7.5s-7.5 3.358-7.5 7.5v10.217c0 4.142 3.358 7.5 7.5 7.5z"/></g><circle cx="160.639" cy="365.147" fill="#fff" r="7.5"/><circle cx="140.204" cy="365.309" fill="#fff" r="7.5"/><g><g><g><path d="m458.643 138.848h-23.84c-4.143 0-7.5-3.358-7.5-7.5s3.357-7.5 7.5-7.5h23.84c4.143 0 7.5 3.358 7.5 7.5s-3.357 7.5-7.5 7.5z" fill="#fff"/></g><g><path d="m306.519 143.957c-4.143 0-7.5-3.358-7.5-7.5v-10.217c0-4.142 3.357-7.5 7.5-7.5s7.5 3.358 7.5 7.5v10.217c0 4.142-3.357 7.5-7.5 7.5z" fill="#596c76"/></g><g><path d="m326.954 143.957c-4.143 0-7.5-3.358-7.5-7.5v-10.217c0-4.142 3.357-7.5 7.5-7.5s7.5 3.358 7.5 7.5v10.217c0 4.142-3.358 7.5-7.5 7.5z" fill="#596c76"/></g><g><path d="m347.388 143.957c-4.143 0-7.5-3.358-7.5-7.5v-10.217c0-4.142 3.357-7.5 7.5-7.5s7.5 3.358 7.5 7.5v10.217c0 4.142-3.357 7.5-7.5 7.5z" fill="#596c76"/></g><g><path d="m367.823 143.957c-4.143 0-7.5-3.358-7.5-7.5v-10.217c0-4.142 3.357-7.5 7.5-7.5s7.5 3.358 7.5 7.5v10.217c0 4.142-3.358 7.5-7.5 7.5z" fill="#596c76"/></g><g><circle cx="413.801" cy="131.348" fill="#fff" r="7.5"/></g><g><circle cx="393.366" cy="131.51" fill="#fff" r="7.5"/></g></g></g><g><g><path d="m77.198 122.973h-23.84c-4.142 0-7.5 3.358-7.5 7.5s3.358 7.5 7.5 7.5h23.84c4.142 0 7.5-3.358 7.5-7.5s-3.358-7.5-7.5-7.5z" fill="#fff"/><g fill="#01c0fa"><path d="m205.481 117.865c-4.142 0-7.5 3.358-7.5 7.5v10.217c0 4.142 3.358 7.5 7.5 7.5s7.5-3.358 7.5-7.5v-10.217c0-4.142-3.358-7.5-7.5-7.5z"/><path d="m185.047 117.865c-4.142 0-7.5 3.358-7.5 7.5v10.217c0 4.142 3.358 7.5 7.5 7.5s7.5-3.358 7.5-7.5v-10.217c0-4.142-3.358-7.5-7.5-7.5z"/><path d="m164.612 117.865c-4.142 0-7.5 3.358-7.5 7.5v10.217c0 4.142 3.358 7.5 7.5 7.5s7.5-3.358 7.5-7.5v-10.217c0-4.142-3.358-7.5-7.5-7.5z"/><path d="m144.177 117.865c-4.142 0-7.5 3.358-7.5 7.5v10.217c0 4.142 3.358 7.5 7.5 7.5s7.5-3.358 7.5-7.5v-10.217c0-4.142-3.357-7.5-7.5-7.5z"/></g><circle cx="98.2" cy="130.473" fill="#fff" r="7.5"/><circle cx="118.634" cy="130.311" fill="#fff" r="7.5"/></g></g><g><g><path d="m77.198 176.006h-23.84c-4.142 0-7.5 3.358-7.5 7.5s3.358 7.5 7.5 7.5h23.84c4.142 0 7.5-3.358 7.5-7.5s-3.358-7.5-7.5-7.5z" fill="#fac600"/><g fill="#465a61"><path d="m205.481 170.897c-4.142 0-7.5 3.358-7.5 7.5v10.217c0 4.142 3.358 7.5 7.5 7.5s7.5-3.358 7.5-7.5v-10.217c0-4.142-3.358-7.5-7.5-7.5z"/><path d="m185.047 170.897c-4.142 0-7.5 3.358-7.5 7.5v10.217c0 4.142 3.358 7.5 7.5 7.5s7.5-3.358 7.5-7.5v-10.217c0-4.142-3.358-7.5-7.5-7.5z"/><path d="m164.612 170.897c-4.142 0-7.5 3.358-7.5 7.5v10.217c0 4.142 3.358 7.5 7.5 7.5s7.5-3.358 7.5-7.5v-10.217c0-4.142-3.358-7.5-7.5-7.5z"/><path d="m144.177 170.897c-4.142 0-7.5 3.358-7.5 7.5v10.217c0 4.142 3.358 7.5 7.5 7.5s7.5-3.358 7.5-7.5v-10.217c0-4.142-3.357-7.5-7.5-7.5z"/></g><circle cx="98.2" cy="183.506" fill="#fac600" r="7.5"/><circle cx="118.634" cy="183.344" fill="#fac600" r="7.5"/></g></g></g></g></svg>