<svg width="47" height="72" viewBox="0 0 47 72" fill="none" xmlns="http://www.w3.org/2000/svg">
<path d="M27.44 37.816C26.8877 37.816 26.44 37.3683 26.44 36.816L26.44 30.944C26.44 30.3917 26.8877 29.944 27.44 29.944L39.42 29.944C40.0291 29.944 40.6094 30.2185 40.9684 30.7106C42.5204 32.8382 43.7336 35.2706 44.608 38.008C45.5893 41.08 46.08 44.2373 46.08 47.48C46.08 52.0453 45.0987 56.1627 43.136 59.832C41.1307 63.5013 38.3787 66.3813 34.88 68.472C31.3813 70.5627 27.4347 71.608 23.04 71.608C18.6453 71.608 14.6987 70.5627 11.2 68.472C7.70133 66.3813 4.97067 63.5013 3.008 59.832C1.00267 56.12 -8.58841e-07 51.96 -1.06026e-06 47.352C-1.22439e-06 43.5973 0.618665 40.184 1.856 37.112C3.09333 34.04 4.61067 31.5147 7 29.424L12.5 34.424C9.08667 37.8373 7.296 42.1467 7.296 46.968C7.296 50.1253 7.95733 52.9413 9.28 55.416C10.6027 57.848 12.4587 59.768 14.848 61.176C17.2373 62.5413 19.968 63.224 23.04 63.224C26.0267 63.224 28.7147 62.5413 31.104 61.176C33.4933 59.768 35.3707 57.848 36.736 55.416C38.1013 52.9413 38.784 50.1467 38.784 47.032C38.784 43.5333 38.016 40.4613 36.48 37.816L27.44 37.816Z" fill="url(#paint0_linear_18_32)"/>
<path d="M-3.08637e-06 1C-3.11051e-06 0.447716 0.447712 -1.95703e-08 0.999997 -4.37114e-08L45 -1.96701e-06C45.5523 -1.99115e-06 46 0.447714 46 0.999998L46 6.3707C46 6.67259 45.8636 6.95833 45.6289 7.14818L15 31.924L9.5 26.924L31.2834 8.25601L0.999997 8.25601C0.447712 8.25601 -2.78877e-06 7.80829 -2.81291e-06 7.25601L-3.08637e-06 1Z" fill="url(#paint1_linear_18_32)"/>
<defs>
<linearGradient id="paint0_linear_18_32" x1="23" y1="72" x2="23" y2="8.13842e-07" gradientUnits="userSpaceOnUse">
<stop stop-color="#8025F4"/>
<stop offset="1" stop-color="#008EF8"/>
</linearGradient>
<linearGradient id="paint1_linear_18_32" x1="23" y1="72" x2="23" y2="8.13842e-07" gradientUnits="userSpaceOnUse">
<stop stop-color="#8025F4"/>
<stop offset="1" stop-color="#008EF8"/>
</linearGradient>
</defs>
</svg>
